<svg xmlns="http://www.w3.org/2000/svg" viewBox="0 0 230.31 203.22"><defs><style>.cls-1{fill:#e6e6e6;}.cls-2{fill:#f1f1f1;}.cls-3{fill:#d2b171;}</style></defs><title>Element 13</title><g id="Ebene_2" data-name="Ebene 2"><g id="Ebene_1-2" data-name="Ebene 1"><path class="cls-1" d="M185.8,49.05l-3.14-3.44a2.75,2.75,0,0,0,.53,3.54,4.52,4.52,0,0,1,.83,3,7.11,7.11,0,0,1-1.31,3,11.53,11.53,0,0,1-2.21,2.36c-3.48,3-7,5.83-10.49,8.85-2.4,2.1-4.65,4.44-7,6.59a20.92,20.92,0,0,1-3.14,2.28c-1.93,1.19-3.91,2.27-5.59,3.25a15.07,15.07,0,0,0-.2,1.89,39.8,39.8,0,0,0,.17,4.77q.89,6.65,2,13.24c.41,2.44,1.07,4.82,1.56,7.25.28,1.4.49,2.82.65,4.25a6.65,6.65,0,0,1-.33,1.7,25.9,25.9,0,0,0-2.21-1.66,6.25,6.25,0,0,0-1.49-.44c-.12.62-.27,1.24-.34,1.87a12.81,12.81,0,0,0,.07,1.68c-2-1.8-3.65-3.34-4.41-5.73-1.73-5.44-3.37-10.93-5-16.43a22.44,22.44,0,0,1-.41-3.67,14.62,14.62,0,0,0-1.43.63c-4.52,2.59-9,5.22-13.54,7.79-3.15,1.79-6.31,3.58-9.52,5.22-.72.36-1.74,1.33-2.51-.16,0-.06-.35.08-.52.15-1.42.64-2.84,1.27-4.25,1.92-3.82,1.76-7.64,3.49-11.43,5.29s-7.31,3.75-11.06,5.33c-4.13,1.74-8.37,3.14-12.56,4.68l-.23-.71c.72-.33,1.43-.68,2.16-1a15.82,15.82,0,0,0,2.37-1l-9.14.69.09-.54c-.65-.31-1.29-.65-2-.91a6.7,6.7,0,0,0-1.65-.47,2.74,2.74,0,0,0-1.45.18c-.85.44-1.47.6-1.55-.83a1.84,1.84,0,0,0-.23-.94c-1.64-2-.83-4-.48-6.24a44.48,44.48,0,0,1,6.17-15.92,27.73,27.73,0,0,0,1.77-4c1.2-3.08,1.92-6.4,3.89-9.09.87-1.2,1.07-3,1.72-4.48s1.58-3.11,2.42-4.63A27.82,27.82,0,0,1,84,63.87c1.2-1.45,1.46-3.63,3.19-4.72.92-.57,1.27-2.28,2-3.34,1.66-2.33,3.4-4.59,5.15-6.84,1.11-1.43,2.4-2.71,3.43-4.22,3.6-5.29,8.3-9.12,12.8-13.2,1.75-1.59,3.94-2.52,5.93-3.75l.17.36-4.5,3.44.19.37c.36-.21.7-.44,1.07-.62,3.88-1.94,7.73-3.94,11.66-5.74.7-.32,1.7.21,2.64.61a12.12,12.12,0,0,1-1.29.54c-3.38,1-5.66,3.65-7.68,6.74a5.08,5.08,0,0,1-.83,1.13A25.71,25.71,0,0,0,111.05,44c-1.26,2.81-3.36,4.57-4.84,7-.65,1.06-1.06,2.31-1.62,3.45-.47,1-1,1.89-1.51,2.79-2.1,3.49-4.24,6.95-6.31,10.47-1.47,2.5-3,5-4.21,7.65-2.06,4.3-3.93,8.72-5.92,13.07-1.48,3.21-3,6.38-4.54,9.58a6.56,6.56,0,0,0-.25,1,6.93,6.93,0,0,0,1.46-.33c2.4-1.18,4.81-2.36,7.18-3.61,1.69-.89,3.27-2.08,5-2.8,5.86-2.43,10.92-6.68,16.5-9.76,4.59-2.53,9.19-5.07,13.79-7.57,6-3.27,12-6.49,18-9.8a2.56,2.56,0,0,0,1-1.57c.88-4.07,1.47-8.25,2.57-12.23a57.21,57.21,0,0,1,3.52-8.83c.9-1.91,4-1.91,5.13-.23a2.51,2.51,0,0,0,.94,1c1.36.47,1.33,1.38.91,2.68-1,3.12-2,6.25-2.86,9.43A10.09,10.09,0,0,0,155,59c6.55-4,13.48-7,19-13.47-3.54-3.85-7-7.63-10.49-11.36-1.22-1.31-2.5-2.55-3.81-3.73-4-3.62-8-7.21-13.47-7.56-1.89-.12-3.72-1.15-5.6-1.64a17.17,17.17,0,0,0-3.94-.6c-3.46-.05-6.93-.07-10.39.1s-7,.45-10.51,1c-4.67.67-9.29,1.71-14,2.39a31.77,31.77,0,0,0-9.91,3.4C88.93,29,85.71,29.79,82.66,31c-2.82,1.14-5.58,2.51-8.4,3.65-.58.24-1.33-.16-2-.09a10.37,10.37,0,0,0-3.66.65c-5.77,3-11.47,6.13-17.21,9.18-.94.5-1.94.82-2.91,1.26a6,6,0,0,0-1.37.81c-1.53,1.32-3,2.8-4.54,4-2.32,1.82-4.75,3.44-7.08,5.23a22.19,22.19,0,0,0-2.11,2.21q-3.62,3.73-7.26,7.44c-.66.67-1.27.6-2.06.07a11.44,11.44,0,0,0-2.71-1,9.45,9.45,0,0,1,.11-1.95,41.09,41.09,0,0,1,6.22-13.9A75.84,75.84,0,0,1,48.45,28.78C60,21.24,71.9,14.37,84.55,9.57a81,81,0,0,1,19.79-5.21c6.76-.74,13.49-1.88,20.24-2.77a10.12,10.12,0,0,1,2.34.47c2.87.35,5.74.65,8.62,1,2,.22,4,.43,6,.7a7.32,7.32,0,0,1,5.14,2.54,3.08,3.08,0,0,0,3,1.12,3.11,3.11,0,0,1,1.86.49c3,1.76,6.05,3.46,8.94,5.46a21.86,21.86,0,0,1,4.76,4.42,49.13,49.13,0,0,0,9.55,8.9c1.09.83,1.18,2,1.6,3.15a5.67,5.67,0,0,0,.64,1.41c1.44,1.84,3,3.6,4.39,5.46a13.36,13.36,0,0,1,1,2.15c.18.38.35,1.07.56,1.08,1.48.09,1.28,1.48,1.5,2.51C184.93,44.57,185.33,46.72,185.8,49.05Zm-65.31,49.3.19.45,6.4-3.78-.21-.48Z"/><path class="cls-2" d="M179.38,14.41c-.27,0-.63-.17-.81,0-2.59,2.12-5.71-.28-8.38,1.78-.14-2-.18-3.52-.38-5.05a40.66,40.66,0,0,0-.88-4.95c-.39-1.55.21-3.7,1.56-4.1,2.46-.71,5-1.18,7.48-1.72.78-.16,1.58-.22,2.51-.34.64,3.23,1.36,6.45.86,9.78-.17,1.11-.32,2.47-1.58,3C179.51,12.91,179.51,13.82,179.38,14.41Z"/><path class="cls-1" d="M0,173.4V138.87H13.36c9.36,0,16,6.4,16,16.9s-6,17.63-14.92,17.63Zm13-5.87c6.29,0,9-4,9-11.76s-2.71-10.92-9.62-10.92H7v22.68Z"/><path class="cls-1" d="M34.42,173.4V138.87h7.23V173.4Z"/><path class="cls-1" d="M56.52,173.4V144.9H46.12v-6H74.2v6H63.75v28.5Z"/><path class="cls-1" d="M93.55,173.4l-2.19-7.12H78.62l-2.44,7.12H68.54l12.32-34.53h8.37L101.4,173.4ZM85,146.62h0L80.5,160.35h8.78Z"/><path class="cls-1" d="M132.7,161.55c-1.45,7.85-6.86,13-14.87,13-9,0-16-6.19-16-18,0-11.7,6.19-18.82,16.07-18.82,8.63,0,14.09,5.51,14.76,12.48h-7.22A7.79,7.79,0,0,0,118,144c-6,0-8.79,4.63-8.79,12.17s2.81,12.17,8.42,12.17c4.27,0,6.87-2.45,7.86-6.76Z"/><path class="cls-1" d="M157.71,173.4V157.91H144.25V173.4H137V138.87h7.23v13h13.46v-13H165V173.4Z"/><path class="cls-1" d="M170.4,173.4V138.87h25.38v6H177.42v7.39h16.9v6.08h-16.9v8.9h19.19v6.13Z"/><path class="cls-1" d="M200.93,173.4V138.87h13.36c9.36,0,16,6.4,16,16.9s-6,17.63-14.93,17.63Zm13-5.87c6.29,0,9-4,9-11.76s-2.7-10.92-9.62-10.92H208v22.68Z"/><path class="cls-3" d="M46.49,202.65l2.93-16.6h7.52c2.83,0,4.1,1.38,4.1,3.4a4.13,4.13,0,0,1-3.35,4.23A3.08,3.08,0,0,1,60.17,197c0,3.3-2.15,5.63-6.83,5.63Zm7.28-1.53c3,0,4.57-1.7,4.57-4,0-2-1.15-2.53-2.92-2.53h-5.7l-1.15,6.55Zm1.87-8.07c2.33,0,3.58-1.22,3.58-3.3,0-1.57-.85-2.12-2.88-2.12h-5.4L50,193.05Z"/><path class="cls-3" d="M75.39,186.05h1.9l-2,11.07c-.7,4-3.42,6.1-7.55,6.1-3.32,0-5.32-1.42-5.32-4.42a8.07,8.07,0,0,1,.15-1.48l2-11.27h1.9l-1.95,11.12a6.43,6.43,0,0,0-.12,1.33c0,2.25,1.35,3.17,3.62,3.17a5,5,0,0,0,5.4-4.55Z"/><path class="cls-3" d="M76.92,202.65l.27-1.6,12.33-13.42h-9.7l.27-1.58H92.17l-.25,1.5-12.38,13.5h10l-.28,1.6Z"/><path class="cls-3" d="M91.32,202.65l.27-1.6,12.33-13.42h-9.7l.27-1.58h12.08l-.25,1.5-12.38,13.5h10l-.28,1.6Z"/><path class="cls-3" d="M119.49,202.65l-1.37-13.5L112,202.65h-1.78l-1.57-16.6h1.92l1.1,13.47,6-13.47h2l1.35,13.47,5.82-13.47h2l-7.4,16.6Z"/><path class="cls-3" d="M128.19,196.5c0-6.47,3.6-11,9.43-11,4,0,6.17,2.6,6.17,6.95,0,6.72-3.42,10.77-9.3,10.77C130.39,203.22,128.19,200.77,128.19,196.5Zm13.73-3.82c0-3.93-1.6-5.5-4.6-5.5-4.58,0-7.25,3.75-7.25,9.14,0,3.68,1.65,5.3,4.7,5.3C139,201.62,141.92,198.45,141.92,192.68Z"/><path class="cls-3" d="M155.52,202.65l.77-4.33c.05-.35.08-.67.1-.95,0-1.35-.77-1.89-3-1.89H148l-1.28,7.17h-1.82l2.92-16.6h8c2.62,0,4.12,1.5,4.12,3.78a4.86,4.86,0,0,1-4.07,4.87c1.64.23,2.37,1,2.37,2.37a5.51,5.51,0,0,1-.1,1l-.8,4.55Zm-1.6-8.7c3,0,4.24-1.87,4.24-3.8s-1-2.52-2.92-2.52h-5.85L148.27,194Z"/><path class="cls-3" d="M160.39,202.65l2.93-16.6h6.1c3.69,0,6.07,2.48,6.07,6.53,0,5.67-3.7,10.07-8.5,10.07Zm6.53-1.53c4.14,0,6.67-3.65,6.67-8.52,0-3.72-1.65-5-4.67-5h-4l-2.38,13.49Z"/></g></g></svg>