<svg xmlns="http://www.w3.org/2000/svg" viewBox="0 0 164.44 118.1"><defs><style>.cls-1{fill:#e6e6e6;}.cls-2{fill:#f1f1f1;}</style></defs><title>Element 11</title><g id="Ebene_2" data-name="Ebene 2"><g id="Ebene_1-2" data-name="Ebene 1"><path class="cls-1" d="M164.44,49.05l-3.14-3.44a2.75,2.75,0,0,0,.53,3.54,4.53,4.53,0,0,1,.84,3,7,7,0,0,1-1.32,3,11.77,11.77,0,0,1-2.2,2.36c-3.49,3-7.05,5.83-10.5,8.85-2.4,2.1-4.65,4.44-7,6.59a20.92,20.92,0,0,1-3.14,2.28c-1.93,1.19-3.9,2.27-5.59,3.25a17.24,17.24,0,0,0-.2,1.89,42,42,0,0,0,.17,4.77c.6,4.43,1.25,8.85,2,13.24.41,2.44,1.07,4.82,1.56,7.25.29,1.4.5,2.82.65,4.25a6.65,6.65,0,0,1-.33,1.7,25.9,25.9,0,0,0-2.21-1.66,6.12,6.12,0,0,0-1.49-.44c-.11.62-.27,1.24-.34,1.87a14.93,14.93,0,0,0,.07,1.68c-2-1.8-3.65-3.34-4.41-5.73-1.73-5.44-3.36-10.93-5-16.43a23.6,23.6,0,0,1-.41-3.67,14.62,14.62,0,0,0-1.43.63c-4.51,2.59-9,5.22-13.54,7.79-3.15,1.79-6.31,3.58-9.52,5.22-.72.36-1.74,1.33-2.51-.16,0-.06-.35.08-.52.15-1.42.64-2.84,1.27-4.25,1.92-3.81,1.76-7.63,3.49-11.43,5.29s-7.31,3.75-11.06,5.33c-4.13,1.74-8.37,3.14-12.56,4.68l-.23-.71c.72-.33,1.43-.68,2.17-1a15.72,15.72,0,0,0,2.36-1l-9.14.69.1-.54c-.65-.31-1.3-.65-2-.91a6.58,6.58,0,0,0-1.65-.47,2.74,2.74,0,0,0-1.45.18c-.85.44-1.47.6-1.55-.83a1.84,1.84,0,0,0-.23-.94c-1.64-2-.83-4-.48-6.24a44.66,44.66,0,0,1,6.17-15.92,27.73,27.73,0,0,0,1.77-4c1.2-3.08,1.93-6.4,3.89-9.09.87-1.2,1.07-3,1.72-4.48s1.59-3.11,2.42-4.63a28.61,28.61,0,0,1,2.58-4.39c1.2-1.45,1.46-3.63,3.19-4.72.92-.57,1.27-2.28,2-3.34,1.67-2.33,3.4-4.59,5.15-6.84,1.12-1.43,2.4-2.71,3.43-4.22,3.6-5.29,8.3-9.12,12.8-13.2C91,30,93.19,29,95.19,27.8l.16.36L90.86,31.6,91,32c.36-.21.71-.44,1.07-.62,3.88-1.94,7.73-3.94,11.66-5.74.71-.32,1.7.21,2.65.61a13.05,13.05,0,0,1-1.29.54c-3.39,1-5.67,3.65-7.69,6.74a5.08,5.08,0,0,1-.83,1.13A25.71,25.71,0,0,0,89.69,44c-1.25,2.81-3.35,4.57-4.84,7-.64,1.06-1,2.31-1.61,3.45-.47,1-1,1.89-1.52,2.79-2.09,3.49-4.24,6.95-6.31,10.47-1.46,2.5-2.94,5-4.21,7.65-2.06,4.3-3.92,8.72-5.92,13.07-1.48,3.21-3,6.38-4.54,9.58a6.89,6.89,0,0,0-.24,1A7.24,7.24,0,0,0,62,98.74c2.4-1.18,4.8-2.36,7.17-3.61,1.69-.89,3.28-2.08,5-2.8,5.87-2.43,10.93-6.68,16.5-9.76C95.23,80,99.83,77.5,104.44,75c6-3.27,12-6.49,18-9.8a2.65,2.65,0,0,0,1-1.57c.88-4.07,1.47-8.25,2.56-12.23a57.21,57.21,0,0,1,3.52-8.83c.9-1.91,3.95-1.91,5.13-.23.27.38.58.84.95,1,1.35.47,1.32,1.38.9,2.68-1,3.12-2,6.25-2.86,9.43a10.09,10.09,0,0,0-.06,3.61c6.55-4,13.48-7,19-13.47-3.55-3.85-7-7.63-10.49-11.36q-1.84-2-3.82-3.73c-4-3.62-8-7.21-13.47-7.56-1.88-.12-3.72-1.15-5.6-1.64a17.08,17.08,0,0,0-3.94-.6c-3.46-.05-6.93-.07-10.38.1s-7,.45-10.52,1c-4.66.67-9.28,1.71-14,2.39a31.85,31.85,0,0,0-9.91,3.4C67.57,29,64.36,29.79,61.31,31c-2.83,1.14-5.58,2.51-8.41,3.65-.58.24-1.33-.16-2-.09a10.37,10.37,0,0,0-3.66.65c-5.77,3-11.47,6.13-17.21,9.18-.93.5-1.94.82-2.9,1.26a5.81,5.81,0,0,0-1.38.81c-1.52,1.32-3,2.8-4.54,4-2.32,1.82-4.75,3.44-7.08,5.23A22.19,22.19,0,0,0,12,57.94q-3.61,3.73-7.26,7.44c-.65.67-1.27.6-2,.07a11.69,11.69,0,0,0-2.72-1,10.2,10.2,0,0,1,.11-1.95,41.11,41.11,0,0,1,6.23-13.9A75.7,75.7,0,0,1,27.1,28.78C38.66,21.24,50.55,14.37,63.19,9.57A81,81,0,0,1,83,4.36c6.76-.74,13.49-1.88,20.23-2.77a10,10,0,0,1,2.34.47c2.87.35,5.75.65,8.62,1,2,.22,4,.43,6,.7a7.3,7.3,0,0,1,5.14,2.54,3.09,3.09,0,0,0,3,1.12,3.14,3.14,0,0,1,1.87.49c3,1.76,6,3.46,8.93,5.46a21.63,21.63,0,0,1,4.76,4.42,49.18,49.18,0,0,0,9.56,8.9c1.09.83,1.17,2,1.6,3.15a5.33,5.33,0,0,0,.64,1.41c1.44,1.84,3,3.6,4.38,5.46a11.86,11.86,0,0,1,1,2.15c.18.38.36,1.07.56,1.08,1.48.09,1.28,1.48,1.5,2.51C163.57,44.57,164,46.72,164.44,49.05ZM99.13,98.35l.19.45,6.4-3.78-.21-.48Z"/><path class="cls-2" d="M157,14.41c-.27,0-.63-.17-.8,0-2.6,2.12-5.72-.28-8.38,1.78-.14-2-.19-3.52-.38-5.05a44.92,44.92,0,0,0-.88-4.95c-.4-1.55.2-3.7,1.55-4.1,2.47-.71,5-1.18,7.48-1.72.78-.16,1.58-.22,2.51-.34.64,3.23,1.37,6.45.86,9.78-.17,1.11-.32,2.47-1.57,3C157.15,12.91,157.15,13.82,157,14.41Z"/></g></g></svg>